<?xml version="1.0" encoding="UTF-8" standalone="no"?>
<!DOCTYPE svg PUBLIC "-//W3C//DTD SVG 1.1//EN"
 "http://www.w3.org/Graphics/SVG/1.1/DTD/svg11.dtd">
<!-- Generated by graphviz version 2.44.1 (20200629.0846)
 -->
<!-- Pages: 1 -->
<svg width="354pt" height="188pt"
 viewBox="0.00 0.00 353.93 188.00" xmlns="http://www.w3.org/2000/svg" xmlns:xlink="http://www.w3.org/1999/xlink">
<g id="graph0" class="graph" transform="scale(1 1) rotate(0) translate(4 184)">
<polygon fill="white" stroke="transparent" points="-4,4 -4,-184 349.93,-184 349.93,4 -4,4"/>
<!-- app -->
<g id="node1" class="node">
<title>app</title>
<ellipse fill="none" stroke="black" cx="225.93" cy="-90" rx="27" ry="18"/>
<text text-anchor="middle" x="225.93" y="-86.3" font-family="Times,serif" font-size="14.00">app</text>
</g>
<!-- vpc -->
<g id="node2" class="node">
<title>vpc</title>
<ellipse fill="none" stroke="black" cx="142.93" cy="-18" rx="27" ry="18"/>
<text text-anchor="middle" x="142.93" y="-14.3" font-family="Times,serif" font-size="14.00">vpc</text>
</g>
<!-- app&#45;&gt;vpc -->
<g id="edge1" class="edge">
<title>app&#45;&gt;vpc</title>
<path fill="none" stroke="black" d="M209.54,-75.17C197.29,-64.85 180.38,-50.58 166.66,-39.01"/>
<polygon fill="black" stroke="black" points="168.92,-36.33 159.02,-32.56 164.4,-41.69 168.92,-36.33"/>
</g>
<!-- iam -->
<g id="node3" class="node">
<title>iam</title>
<ellipse fill="none" stroke="black" cx="318.93" cy="-18" rx="27" ry="18"/>
<text text-anchor="middle" x="318.93" y="-14.3" font-family="Times,serif" font-size="14.00">iam</text>
</g>
<!-- app&#45;&gt;iam -->
<g id="edge2" class="edge">
<title>app&#45;&gt;iam</title>
<path fill="none" stroke="black" d="M243.43,-75.83C257.46,-65.27 277.35,-50.3 293.2,-38.37"/>
<polygon fill="black" stroke="black" points="295.64,-40.92 301.52,-32.11 291.43,-35.32 295.64,-40.92"/>
</g>
<!-- bastion -->
<g id="node4" class="node">
<title>bastion</title>
<ellipse fill="none" stroke="black" cx="61.93" cy="-162" rx="36.29" ry="18"/>
<text text-anchor="middle" x="61.93" y="-158.3" font-family="Times,serif" font-size="14.00">bastion</text>
</g>
<!-- bastion&#45;&gt;app -->
<g id="edge4" class="edge">
<title>bastion&#45;&gt;app</title>
<path fill="none" stroke="black" d="M88.65,-149.6C117.56,-137.26 163.63,-117.59 194.32,-104.49"/>
<polygon fill="black" stroke="black" points="195.88,-107.63 203.71,-100.49 193.14,-101.19 195.88,-107.63"/>
</g>
<!-- bastion&#45;&gt;vpc -->
<g id="edge3" class="edge">
<title>bastion&#45;&gt;vpc</title>
<path fill="none" stroke="black" d="M40.45,-147.38C27.81,-138.02 12.97,-124.35 5.93,-108 -0.39,-93.3 -3.11,-85.2 5.93,-72 28.25,-39.45 73.64,-26.88 106.07,-22.04"/>
<polygon fill="black" stroke="black" points="106.63,-25.49 116.09,-20.72 105.72,-18.55 106.63,-25.49"/>
</g>
<!-- gitaly -->
<g id="node5" class="node">
<title>gitaly</title>
<ellipse fill="none" stroke="black" cx="293.93" cy="-162" rx="30.59" ry="18"/>
<text text-anchor="middle" x="293.93" y="-158.3" font-family="Times,serif" font-size="14.00">gitaly</text>
</g>
<!-- gitaly&#45;&gt;app -->
<g id="edge7" class="edge">
<title>gitaly&#45;&gt;app</title>
<path fill="none" stroke="black" d="M279.18,-145.81C269.88,-136.23 257.7,-123.7 247.35,-113.04"/>
<polygon fill="black" stroke="black" points="249.67,-110.41 240.19,-105.68 244.65,-115.29 249.67,-110.41"/>
</g>
<!-- gitaly&#45;&gt;vpc -->
<g id="edge5" class="edge">
<title>gitaly&#45;&gt;vpc</title>
<path fill="none" stroke="black" d="M291.84,-143.85C288.62,-124.23 280.71,-92.21 261.93,-72 239.79,-48.15 204.94,-34.37 178.67,-26.87"/>
<polygon fill="black" stroke="black" points="179.27,-23.41 168.71,-24.21 177.46,-30.17 179.27,-23.41"/>
</g>
<!-- gitaly&#45;&gt;iam -->
<g id="edge6" class="edge">
<title>gitaly&#45;&gt;iam</title>
<path fill="none" stroke="black" d="M308.81,-146.27C317.7,-136.38 328.16,-122.54 332.93,-108 339.69,-87.41 335.03,-63.03 329.34,-45"/>
<polygon fill="black" stroke="black" points="332.61,-43.76 326.03,-35.45 325.99,-46.04 332.61,-43.76"/>
</g>
<!-- rds -->
<g id="node6" class="node">
<title>rds</title>
<ellipse fill="none" stroke="black" cx="41.93" cy="-90" rx="27" ry="18"/>
<text text-anchor="middle" x="41.93" y="-86.3" font-family="Times,serif" font-size="14.00">rds</text>
</g>
<!-- rds&#45;&gt;vpc -->
<g id="edge8" class="edge">
<title>rds&#45;&gt;vpc</title>
<path fill="none" stroke="black" d="M59.99,-76.49C75.69,-65.6 98.65,-49.69 116.43,-37.37"/>
<polygon fill="black" stroke="black" points="118.47,-40.22 124.69,-31.64 114.48,-34.46 118.47,-40.22"/>
</g>
<!-- redis -->
<g id="node7" class="node">
<title>redis</title>
<ellipse fill="none" stroke="black" cx="114.93" cy="-90" rx="27.9" ry="18"/>
<text text-anchor="middle" x="114.93" y="-86.3" font-family="Times,serif" font-size="14.00">redis</text>
</g>
<!-- redis&#45;&gt;vpc -->
<g id="edge9" class="edge">
<title>redis&#45;&gt;vpc</title>
<path fill="none" stroke="black" d="M121.57,-72.41C124.85,-64.22 128.88,-54.14 132.55,-44.95"/>
<polygon fill="black" stroke="black" points="135.88,-46.05 136.35,-35.47 129.38,-43.45 135.88,-46.05"/>
</g>
<!-- runner -->
<g id="node8" class="node">
<title>runner</title>
<ellipse fill="none" stroke="black" cx="211.93" cy="-162" rx="33.6" ry="18"/>
<text text-anchor="middle" x="211.93" y="-158.3" font-family="Times,serif" font-size="14.00">runner</text>
</g>
<!-- runner&#45;&gt;app -->
<g id="edge12" class="edge">
<title>runner&#45;&gt;app</title>
<path fill="none" stroke="black" d="M215.32,-144.05C216.86,-136.35 218.73,-127.03 220.46,-118.36"/>
<polygon fill="black" stroke="black" points="223.95,-118.77 222.48,-108.28 217.09,-117.39 223.95,-118.77"/>
</g>
<!-- runner&#45;&gt;vpc -->
<g id="edge10" class="edge">
<title>runner&#45;&gt;vpc</title>
<path fill="none" stroke="black" d="M203.88,-144.43C191.94,-119.85 169.42,-73.51 155.35,-44.56"/>
<polygon fill="black" stroke="black" points="158.45,-42.93 150.93,-35.46 152.16,-45.99 158.45,-42.93"/>
</g>
<!-- runner&#45;&gt;iam -->
<g id="edge11" class="edge">
<title>runner&#45;&gt;iam</title>
<path fill="none" stroke="black" d="M227.61,-145.92C237.9,-135.67 251.35,-121.56 261.93,-108 278.07,-87.34 293.95,-62.02 304.83,-43.68"/>
<polygon fill="black" stroke="black" points="307.86,-45.43 309.89,-35.03 301.82,-41.89 307.86,-45.43"/>
</g>
</g>
</svg>
