<?xml version="1.0" encoding="UTF-8" standalone="no"?>
<!DOCTYPE svg PUBLIC "-//W3C//DTD SVG 1.1//EN"
 "http://www.w3.org/Graphics/SVG/1.1/DTD/svg11.dtd">
<!-- Generated by graphviz version 2.44.1 (20200629.0846)
 -->
<!-- Pages: 1 -->
<svg width="535pt" height="116pt"
 viewBox="0.00 0.00 535.40 116.00" xmlns="http://www.w3.org/2000/svg" xmlns:xlink="http://www.w3.org/1999/xlink">
<g id="graph0" class="graph" transform="scale(1 1) rotate(0) translate(4 112)">
<polygon fill="white" stroke="transparent" points="-4,4 -4,-112 531.4,-112 531.4,4 -4,4"/>
<!-- app -->
<g id="node1" class="node">
<title>app</title>
<ellipse fill="none" stroke="black" cx="263.4" cy="-90" rx="27" ry="18"/>
<text text-anchor="middle" x="263.4" y="-86.3" font-family="Times,serif" font-size="14.00">app</text>
</g>
<!-- vpc -->
<g id="node2" class="node">
<title>vpc</title>
<ellipse fill="none" stroke="black" cx="227.4" cy="-18" rx="27" ry="18"/>
<text text-anchor="middle" x="227.4" y="-14.3" font-family="Times,serif" font-size="14.00">vpc</text>
</g>
<!-- app&#45;&gt;vpc -->
<g id="edge1" class="edge">
<title>app&#45;&gt;vpc</title>
<path fill="none" stroke="black" d="M255.05,-72.76C250.69,-64.28 245.25,-53.71 240.36,-44.2"/>
<polygon fill="black" stroke="black" points="243.39,-42.44 235.7,-35.15 237.16,-45.64 243.39,-42.44"/>
</g>
<!-- iam -->
<g id="node3" class="node">
<title>iam</title>
<ellipse fill="none" stroke="black" cx="339.4" cy="-18" rx="27" ry="18"/>
<text text-anchor="middle" x="339.4" y="-14.3" font-family="Times,serif" font-size="14.00">iam</text>
</g>
<!-- app&#45;&gt;iam -->
<g id="edge2" class="edge">
<title>app&#45;&gt;iam</title>
<path fill="none" stroke="black" d="M278.78,-74.83C289.59,-64.87 304.25,-51.37 316.45,-40.14"/>
<polygon fill="black" stroke="black" points="319.06,-42.49 324.04,-33.14 314.31,-37.34 319.06,-42.49"/>
</g>
<!-- bastion -->
<g id="node4" class="node">
<title>bastion</title>
<ellipse fill="none" stroke="black" cx="36.4" cy="-90" rx="36.29" ry="18"/>
<text text-anchor="middle" x="36.4" y="-86.3" font-family="Times,serif" font-size="14.00">bastion</text>
</g>
<!-- bastion&#45;&gt;vpc -->
<g id="edge3" class="edge">
<title>bastion&#45;&gt;vpc</title>
<path fill="none" stroke="black" d="M64.46,-78.33C70.07,-76.22 75.91,-74.03 81.4,-72 120.25,-57.61 165.05,-41.4 194.67,-30.74"/>
<polygon fill="black" stroke="black" points="195.87,-34.03 204.1,-27.35 193.5,-27.44 195.87,-34.03"/>
</g>
<!-- gitaly -->
<g id="node5" class="node">
<title>gitaly</title>
<ellipse fill="none" stroke="black" cx="339.4" cy="-90" rx="30.59" ry="18"/>
<text text-anchor="middle" x="339.4" y="-86.3" font-family="Times,serif" font-size="14.00">gitaly</text>
</g>
<!-- gitaly&#45;&gt;vpc -->
<g id="edge4" class="edge">
<title>gitaly&#45;&gt;vpc</title>
<path fill="none" stroke="black" d="M319.11,-76.32C301.18,-65.12 274.87,-48.67 255.02,-36.26"/>
<polygon fill="black" stroke="black" points="256.74,-33.21 246.41,-30.88 253.03,-39.15 256.74,-33.21"/>
</g>
<!-- gitaly&#45;&gt;iam -->
<g id="edge5" class="edge">
<title>gitaly&#45;&gt;iam</title>
<path fill="none" stroke="black" d="M339.4,-71.7C339.4,-63.98 339.4,-54.71 339.4,-46.11"/>
<polygon fill="black" stroke="black" points="342.9,-46.1 339.4,-36.1 335.9,-46.1 342.9,-46.1"/>
</g>
<!-- rds -->
<g id="node6" class="node">
<title>rds</title>
<ellipse fill="none" stroke="black" cx="117.4" cy="-90" rx="27" ry="18"/>
<text text-anchor="middle" x="117.4" y="-86.3" font-family="Times,serif" font-size="14.00">rds</text>
</g>
<!-- rds&#45;&gt;vpc -->
<g id="edge6" class="edge">
<title>rds&#45;&gt;vpc</title>
<path fill="none" stroke="black" d="M136.56,-76.81C154.07,-65.67 180.16,-49.06 199.89,-36.5"/>
<polygon fill="black" stroke="black" points="201.9,-39.37 208.46,-31.05 198.14,-33.47 201.9,-39.37"/>
</g>
<!-- redis -->
<g id="node7" class="node">
<title>redis</title>
<ellipse fill="none" stroke="black" cx="190.4" cy="-90" rx="27.9" ry="18"/>
<text text-anchor="middle" x="190.4" y="-86.3" font-family="Times,serif" font-size="14.00">redis</text>
</g>
<!-- redis&#45;&gt;vpc -->
<g id="edge7" class="edge">
<title>redis&#45;&gt;vpc</title>
<path fill="none" stroke="black" d="M198.98,-72.76C203.46,-64.28 209.05,-53.71 214.08,-44.2"/>
<polygon fill="black" stroke="black" points="217.28,-45.62 218.86,-35.15 211.09,-42.35 217.28,-45.62"/>
</g>
<!-- runner -->
<g id="node8" class="node">
<title>runner</title>
<ellipse fill="none" stroke="black" cx="421.4" cy="-90" rx="33.6" ry="18"/>
<text text-anchor="middle" x="421.4" y="-86.3" font-family="Times,serif" font-size="14.00">runner</text>
</g>
<!-- runner&#45;&gt;vpc -->
<g id="edge8" class="edge">
<title>runner&#45;&gt;vpc</title>
<path fill="none" stroke="black" d="M395.26,-78.19C390.03,-76.09 384.55,-73.94 379.4,-72 338.86,-56.74 291.7,-40.53 260.79,-30.12"/>
<polygon fill="black" stroke="black" points="261.55,-26.68 250.96,-26.82 259.33,-33.32 261.55,-26.68"/>
</g>
<!-- runner&#45;&gt;iam -->
<g id="edge9" class="edge">
<title>runner&#45;&gt;iam</title>
<path fill="none" stroke="black" d="M404.01,-74.15C392.09,-63.98 376.15,-50.37 363.08,-39.21"/>
<polygon fill="black" stroke="black" points="365.25,-36.47 355.37,-32.64 360.7,-41.79 365.25,-36.47"/>
</g>
<!-- s3 -->
<g id="node9" class="node">
<title>s3</title>
<ellipse fill="none" stroke="black" cx="500.4" cy="-90" rx="27" ry="18"/>
<text text-anchor="middle" x="500.4" y="-86.3" font-family="Times,serif" font-size="14.00">s3</text>
</g>
</g>
</svg>
